<?xml version="1.0" encoding="UTF-8" standalone="no"?>
<svg width="367px" height="65px" viewBox="0 0 367 65" version="1.1" xmlns="http://www.w3.org/2000/svg" xmlns:xlink="http://www.w3.org/1999/xlink">
    <!-- Generator: Sketch 39.1 (31720) - http://www.bohemiancoding.com/sketch -->
    <title>Group</title>
    <desc>Created with Sketch.</desc>
    <defs>
        <filter x="-50%" y="-50%" width="200%" height="200%" filterUnits="objectBoundingBox" id="filter-1">
            <feOffset dx="0" dy="2" in="SourceAlpha" result="shadowOffsetOuter1"></feOffset>
            <feGaussianBlur stdDeviation="2" in="shadowOffsetOuter1" result="shadowBlurOuter1"></feGaussianBlur>
            <feColorMatrix values="0 0 0 0 0.143707483   0 0 0 0 0.143707483   0 0 0 0 0.143707483  0 0 0 0.5 0" type="matrix" in="shadowBlurOuter1" result="shadowMatrixOuter1"></feColorMatrix>
            <feMerge>
                <feMergeNode in="shadowMatrixOuter1"></feMergeNode>
                <feMergeNode in="SourceGraphic"></feMergeNode>
            </feMerge>
        </filter>
    </defs>
    <g id="Page-1" stroke="none" stroke-width="1" fill="none" fill-rule="evenodd">
        <g id="Work---Placeavote" transform="translate(-537.000000, -196.000000)" fill="#FFFFFF">
            <g id="Group" filter="url(#filter-1)" transform="translate(541.000000, 198.000000)">
                <g id="Shape">
                    <g>
                        <polygon points="0.0597846561 28.321875 0.0597846561 28.321875 6.81545079 35.03125 13.5711169 28.321875 6.81545079 21.6125"></polygon>
                        <g transform="translate(1.195693, 0.000000)">
                            <g transform="translate(69.350201, 0.000000)">
                                <path d="M16.5603497,45.540625 C13.8102556,45.540625 11.8373619,45.065625 10.0438222,44.471875 L10.0438222,55.396875 L0.538061905,56.821875 L0.538061905,14.60625 L8.90791376,14.60625 L9.56554497,18.64375 C11.7177926,16.26875 14.4678868,13.953125 18.4734587,13.953125 C24.8704169,13.953125 29.5934048,18.703125 29.5934048,29.09375 C29.5934048,40.73125 23.3758005,45.540625 16.5603497,45.540625 L16.5603497,45.540625 Z M15.3646566,22.44375 C13.2721937,22.44375 11.6580079,23.690625 10.0438222,25.590625 L10.0438222,37.228125 C11.3590847,37.88125 12.4352085,38.178125 14.4081021,38.178125 C17.6364735,38.178125 20.0278598,35.74375 20.0278598,29.80625 C20.0278598,24.640625 18.1147508,22.44375 15.3646566,22.44375 L15.3646566,22.44375 Z"></path>
                                <polygon points="35.0935931 45.24375 35.0935931 1.603125 44.6591381 0.11875 44.6591381 45.24375"></polygon>
                                <path d="M68.6327852,45.24375 L67.975154,41.44375 C65.4641984,44.05625 62.4749656,45.896875 58.230255,45.896875 C53.3279132,45.896875 49.8604032,42.9875 49.8604032,37.40625 C49.8604032,30.221875 55.4203762,26.8375 67.5566614,25.76875 L67.5566614,25.234375 C67.5566614,22.5625 66.062045,21.375 62.8934582,21.375 C59.4259481,21.375 56.1975767,22.265625 52.9094206,23.690625 L51.7735122,16.565625 C55.3008069,15.140625 59.3063788,14.190625 64.3282899,14.190625 C72.8774958,14.190625 77.0624217,16.98125 77.0624217,24.81875 L77.0624217,45.303125 L68.6327852,45.303125 L68.6327852,45.24375 Z M67.5566614,30.340625 C61.0401339,31.35 59.3063788,33.4875 59.3063788,36.159375 C59.3063788,38.11875 60.502072,39.1875 62.2956116,39.1875 C64.148936,39.1875 65.882691,38.35625 67.616446,36.871875 L67.616446,30.340625 L67.5566614,30.340625 Z"></path>
                                <path d="M96.8511429,45.8375 C87.9432291,45.8375 81.9049788,40.078125 81.9049788,30.221875 C81.9049788,19.415625 88.8399989,14.13125 97.2696354,14.13125 C100.976284,14.13125 103.965517,15.021875 106.476472,16.446875 L105.220995,24.521875 C102.769824,22.978125 100.737146,22.265625 98.2261899,22.265625 C94.399972,22.265625 91.5900931,24.81875 91.5900931,29.984375 C91.5900931,35.209375 94.6988952,37.821875 98.5251132,37.821875 C100.79693,37.821875 102.949178,37.109375 105.579703,35.446875 L106.715611,43.165625 C103.606809,44.946875 100.498007,45.8375 96.8511429,45.8375 L96.8511429,45.8375 Z"></path>
                                <path d="M137.863417,32.3 L119.330174,32.3 C119.808451,37.109375 122.737899,39.009375 126.922825,39.009375 C130.33055,39.009375 133.678491,37.7625 137.086216,35.803125 L138.042771,42.453125 C134.69483,44.590625 130.569689,45.896875 125.727132,45.896875 C116.46051,45.896875 109.824413,41.028125 109.824413,30.103125 C109.824413,20.128125 115.982233,14.0125 124.411869,14.0125 C133.857845,14.0125 138.102556,21.01875 138.102556,29.865625 C138.102556,30.815625 138.042771,31.825 137.863417,32.3 L137.863417,32.3 Z M124.112946,20.128125 C121.482421,20.128125 119.569312,22.44375 119.270389,27.134375 L129.015288,27.134375 C128.65658,22.503125 127.042394,20.128125 124.112946,20.128125 L124.112946,20.128125 Z"></path>
                                <path d="M160.402232,45.24375 L159.744601,41.44375 C157.233646,44.05625 154.244413,45.896875 149.999702,45.896875 C145.09736,45.896875 141.62985,42.9875 141.62985,37.40625 C141.62985,30.221875 147.189823,26.8375 159.326108,25.76875 L159.326108,25.234375 C159.326108,22.5625 157.831492,21.375 154.662905,21.375 C151.195395,21.375 147.967024,22.265625 144.678868,23.690625 L143.542959,16.565625 C147.070254,15.140625 151.075826,14.190625 156.097737,14.190625 C164.646943,14.190625 168.831869,16.98125 168.831869,24.81875 L168.831869,45.303125 L160.402232,45.303125 L160.402232,45.24375 Z M159.326108,30.340625 C152.809581,31.35 151.075826,33.4875 151.075826,36.159375 C151.075826,38.11875 152.271519,39.1875 154.065059,39.1875 C155.918383,39.1875 157.652138,38.35625 159.385893,36.871875 L159.385893,30.340625 L159.326108,30.340625 Z"></path>
                                <polygon points="191.848961 45.3625 182.343201 45.3625 171.821102 15.378125 182.044278 14.190625 187.783605 33.546875 193.403362 14.60625 202.669984 14.60625"></polygon>
                                <path d="M218.692272,45.896875 C210.143066,45.896875 203.925462,39.840625 203.925462,30.04375 C203.925462,20.246875 210.262635,14.0125 218.752057,14.0125 C227.361047,14.0125 233.638436,20.128125 233.638436,29.984375 C233.638436,39.840625 227.301262,45.896875 218.692272,45.896875 L218.692272,45.896875 Z M218.752057,21.73125 C215.105193,21.73125 213.132299,24.9375 213.132299,29.925 C213.132299,34.853125 215.164977,38.2375 218.752057,38.2375 C222.398921,38.2375 224.431599,34.9125 224.431599,29.984375 C224.431599,25.05625 222.398921,21.73125 218.752057,21.73125 L218.752057,21.73125 Z"></path>
                                <path d="M251.633617,45.71875 C244.997521,45.71875 240.394102,43.34375 240.394102,35.50625 L240.394102,22.325 L236.268961,22.325 L236.268961,14.60625 L240.394102,14.60625 L240.394102,5.4625 L249.840078,4.0375 L249.840078,14.60625 L255.698974,14.60625 L256.894667,22.325 L249.840078,22.325 L249.840078,34.021875 C249.840078,36.515625 251.035771,37.64375 253.606511,37.64375 C254.443496,37.64375 255.160912,37.525 255.878328,37.346875 L257.074021,45.125 C255.639189,45.48125 254.144573,45.71875 251.633617,45.71875 L251.633617,45.71875 Z"></path>
                                <path d="M287.922904,32.3 L269.38966,32.3 C269.867938,37.109375 272.797386,39.009375 276.982312,39.009375 C280.390037,39.009375 283.737978,37.7625 287.145703,35.803125 L288.102258,42.453125 C284.754317,44.590625 280.629176,45.896875 275.786619,45.896875 C266.519997,45.896875 259.8839,41.028125 259.8839,30.103125 C259.8839,20.128125 266.04172,14.0125 274.471356,14.0125 C283.917332,14.0125 288.162042,21.01875 288.162042,29.865625 C288.102258,30.815625 288.042473,31.825 287.922904,32.3 L287.922904,32.3 Z M274.172433,20.128125 C271.541908,20.128125 269.628799,22.44375 269.329876,27.134375 L279.074775,27.134375 C278.716067,22.503125 277.101881,20.128125 274.172433,20.128125 L274.172433,20.128125 Z"></path>
                            </g>
                            <polygon points="20.7452757 6.828125 20.7452757 6.828125 27.5009418 13.5375 34.2566079 6.828125 27.5009418 0.11875"></polygon>
                            <polygon points="42.3275365 28.321875 42.3275365 28.321875 49.0832026 35.03125 55.8388688 28.321875 49.0832026 21.6125"></polygon>
                            <polygon points="20.7452757 49.875 20.7452757 49.875 27.5009418 56.584375 34.2566079 49.875 27.5009418 43.165625"></polygon>
                            <path d="M0.239138624,14.25 L13.0928397,26.95625 L25.9465407,14.25 L13.0928397,1.484375 L0.239138624,14.25 L0.239138624,14.25 Z M15.2450873,12.825 L11.6580079,16.328125 L10.9405921,15.615625 L14.5276714,12.1125 L15.2450873,12.825 L15.2450873,12.825 Z"></path>
                            <path d="M0.239138624,42.453125 L13.0928397,55.159375 L25.9465407,42.453125 L13.0928397,29.746875 L0.239138624,42.453125 L0.239138624,42.453125 Z M14.5276714,44.590625 L10.9405921,41.0875 L11.6580079,40.375 L15.2450873,43.878125 L14.5276714,44.590625 L14.5276714,44.590625 Z"></path>
                            <path d="M41.6101206,26.95625 L54.4638217,14.25 L41.6101206,1.484375 L28.7564196,14.25 L41.6101206,26.95625 L41.6101206,26.95625 Z M43.7623683,15.615625 L43.0449524,16.328125 L39.457873,12.825 L40.1752889,12.1125 L43.7623683,15.615625 L43.7623683,15.615625 Z"></path>
                            <path d="M28.7564196,42.453125 L41.6101206,55.159375 L54.4638217,42.453125 L41.6101206,29.746875 L28.7564196,42.453125 L28.7564196,42.453125 Z M43.7623683,41.028125 L40.1752889,44.53125 L39.457873,43.878125 L43.0449524,40.375 L43.7623683,41.028125 L43.7623683,41.028125 Z"></path>
                        </g>
                    </g>
                </g>
            </g>
        </g>
    </g>
</svg>