<?xml version="1.0" encoding="UTF-8" standalone="no"?>
<svg width="363px" height="58px" viewBox="0 0 363 58" version="1.1" xmlns="http://www.w3.org/2000/svg" xmlns:xlink="http://www.w3.org/1999/xlink">
    <!-- Generator: Sketch 39 (31667) - http://www.bohemiancoding.com/sketch -->
    <title>Logo</title>
    <desc>Created with Sketch.</desc>
    <defs>
        <linearGradient x1="17.8123457%" y1="50.1225762%" x2="930.556584%" y2="50.1225762%" id="linearGradient-1">
            <stop stop-color="#6C55A0" offset="0%"></stop>
            <stop stop-color="#4D6EB2" offset="100%"></stop>
        </linearGradient>
        <linearGradient x1="-307.145%" y1="50.0086842%" x2="2465.31562%" y2="50.0086842%" id="linearGradient-2">
            <stop stop-color="#6C55A0" offset="0%"></stop>
            <stop stop-color="#4D6EB2" offset="100%"></stop>
        </linearGradient>
        <linearGradient x1="-162.292747%" y1="49.8621723%" x2="812.638462%" y2="49.8621723%" id="linearGradient-3">
            <stop stop-color="#6C55A0" offset="0%"></stop>
            <stop stop-color="#4D6EB2" offset="100%"></stop>
        </linearGradient>
        <linearGradient x1="-307.092048%" y1="49.9516854%" x2="761.808434%" y2="49.9516854%" id="linearGradient-4">
            <stop stop-color="#6C55A0" offset="0%"></stop>
            <stop stop-color="#4D6EB2" offset="100%"></stop>
        </linearGradient>
        <linearGradient x1="-368.167442%" y1="49.9467412%" x2="569.662791%" y2="49.9467412%" id="linearGradient-5">
            <stop stop-color="#6C55A0" offset="0%"></stop>
            <stop stop-color="#4D6EB2" offset="100%"></stop>
        </linearGradient>
        <linearGradient x1="-499.655385%" y1="49.8621723%" x2="475.275824%" y2="49.8621723%" id="linearGradient-6">
            <stop stop-color="#6C55A0" offset="0%"></stop>
            <stop stop-color="#4D6EB2" offset="100%"></stop>
        </linearGradient>
        <linearGradient x1="-538.455814%" y1="50.0150476%" x2="321.221899%" y2="50.0150476%" id="linearGradient-7">
            <stop stop-color="#6C55A0" offset="0%"></stop>
            <stop stop-color="#4D6EB2" offset="100%"></stop>
        </linearGradient>
        <linearGradient x1="-667.088934%" y1="49.9467412%" x2="225.453722%" y2="49.9467412%" id="linearGradient-8">
            <stop stop-color="#6C55A0" offset="0%"></stop>
            <stop stop-color="#4D6EB2" offset="100%"></stop>
        </linearGradient>
        <linearGradient x1="-1108.17011%" y1="49.9884615%" x2="166.524425%" y2="49.9884615%" id="linearGradient-9">
            <stop stop-color="#6C55A0" offset="0%"></stop>
            <stop stop-color="#4D6EB2" offset="100%"></stop>
        </linearGradient>
        <linearGradient x1="-898.822833%" y1="49.9467412%" x2="39.0073996%" y2="49.9467412%" id="linearGradient-10">
            <stop stop-color="#6C55A0" offset="0%"></stop>
            <stop stop-color="#4D6EB2" offset="100%"></stop>
        </linearGradient>
        <linearGradient x1="0.063876652%" y1="49.959292%" x2="99.8757709%" y2="49.959292%" id="linearGradient-11">
            <stop stop-color="#4C3593" offset="0%"></stop>
            <stop stop-color="#90278E" offset="100%"></stop>
        </linearGradient>
        <linearGradient x1="-0.169469027%" y1="50.1676991%" x2="100.084071%" y2="50.1676991%" id="linearGradient-12">
            <stop stop-color="#4C3593" offset="0%"></stop>
            <stop stop-color="#90278E" offset="100%"></stop>
        </linearGradient>
        <linearGradient x1="-0.12699115%" y1="49.9353982%" x2="100.126991%" y2="49.9353982%" id="linearGradient-13">
            <stop stop-color="#4C3593" offset="0%"></stop>
            <stop stop-color="#90278E" offset="100%"></stop>
        </linearGradient>
        <linearGradient x1="-0.142649646%" y1="50.1676991%" x2="100.111062%" y2="50.1676991%" id="linearGradient-14">
            <stop stop-color="#4C3593" offset="0%"></stop>
            <stop stop-color="#90278E" offset="100%"></stop>
        </linearGradient>
        <linearGradient x1="0.056744186%" y1="50.0354312%" x2="99.9688372%" y2="50.0354312%" id="linearGradient-15">
            <stop stop-color="#6C55A0" offset="0%"></stop>
            <stop stop-color="#4D6EB2" offset="100%"></stop>
        </linearGradient>
        <linearGradient x1="0.056744186%" y1="50.0235981%" x2="99.9688372%" y2="50.0235981%" id="linearGradient-16">
            <stop stop-color="#6C55A0" offset="0%"></stop>
            <stop stop-color="#4D6EB2" offset="100%"></stop>
        </linearGradient>
        <linearGradient x1="-0.00023255814%" y1="50.0354312%" x2="99.9127907%" y2="50.0354312%" id="linearGradient-17">
            <stop stop-color="#6C55A0" offset="0%"></stop>
            <stop stop-color="#4D6EB2" offset="100%"></stop>
        </linearGradient>
        <linearGradient x1="0.00023255814%" y1="50.0245327%" x2="99.9123256%" y2="50.0245327%" id="linearGradient-18">
            <stop stop-color="#6C55A0" offset="0%"></stop>
            <stop stop-color="#4D6EB2" offset="100%"></stop>
        </linearGradient>
    </defs>
    <g id="Page-1" stroke="none" stroke-width="1" fill="none" fill-rule="evenodd">
        <g id="Work---Placeavote" transform="translate(-539.000000, -198.000000)">
            <g id="Header" transform="translate(324.000000, 198.000000)">
                <g id="Logo" transform="translate(215.000000, 0.000000)">
                    <g id="Layer_1">
                        <g id="Group">
                            <g transform="translate(71.390000, 0.000000)" id="Shape">
                                <path d="M16.7585,46.3395833 C13.9755,46.3395833 11.979,45.85625 10.164,45.2520833 L10.164,56.36875 L0.5445,57.81875 L0.5445,14.8625 L9.0145,14.8625 L9.68,18.9708333 C11.858,16.5541667 14.641,14.1979167 18.6945,14.1979167 C25.168,14.1979167 29.9475,19.03125 29.9475,29.6041667 C29.9475,41.4458333 23.6555,46.3395833 16.7585,46.3395833 L16.7585,46.3395833 Z M15.5485,22.8375 C13.431,22.8375 11.7975,24.10625 10.164,26.0395833 L10.164,37.88125 C11.495,38.5458333 12.584,38.8479167 14.5805,38.8479167 C17.8475,38.8479167 20.2675,36.3708333 20.2675,30.3291667 C20.2675,25.0729167 18.3315,22.8375 15.5485,22.8375 L15.5485,22.8375 Z" fill="url(#linearGradient-1)"></path>
                                <polygon fill="url(#linearGradient-2)" points="35.5135 46.0375 35.5135 1.63125 45.1935 0.120833333 45.1935 46.0375"></polygon>
                                <path d="M69.454,46.0375 L68.7885,42.1708333 C66.2475,44.8291667 63.2225,46.7020833 58.927,46.7020833 C53.966,46.7020833 50.457,43.7416667 50.457,38.0625 C50.457,30.7520833 56.0835,27.3083333 68.365,26.2208333 L68.365,25.6770833 C68.365,22.9583333 66.8525,21.75 63.646,21.75 C60.137,21.75 56.87,22.65625 53.5425,24.10625 L52.393,16.85625 C55.9625,15.40625 60.016,14.4395833 65.098,14.4395833 C73.7495,14.4395833 77.9845,17.2791667 77.9845,25.2541667 L77.9845,46.0979167 L69.454,46.0979167 L69.454,46.0375 Z M68.365,30.8729167 C61.7705,31.9 60.016,34.075 60.016,36.79375 C60.016,38.7875 61.226,39.875 63.041,39.875 C64.9165,39.875 66.671,39.0291667 68.4255,37.51875 L68.4255,30.8729167 L68.365,30.8729167 Z" fill="url(#linearGradient-3)"></path>
                                <path d="M98.01,46.6416667 C88.9955,46.6416667 82.885,40.78125 82.885,30.7520833 C82.885,19.75625 89.903,14.3791667 98.4335,14.3791667 C102.1845,14.3791667 105.2095,15.2854167 107.7505,16.7354167 L106.48,24.9520833 C103.9995,23.38125 101.9425,22.65625 99.4015,22.65625 C95.5295,22.65625 92.686,25.2541667 92.686,30.5104167 C92.686,35.8270833 95.832,38.4854167 99.704,38.4854167 C102.003,38.4854167 104.181,37.7604167 106.843,36.06875 L107.9925,43.9229167 C104.8465,45.7354167 101.7005,46.6416667 98.01,46.6416667 L98.01,46.6416667 Z" fill="url(#linearGradient-4)"></path>
                                <path d="M139.513,32.8666667 L120.758,32.8666667 C121.242,37.7604167 124.2065,39.69375 128.4415,39.69375 C131.89,39.69375 135.278,38.425 138.7265,36.43125 L139.6945,43.1979167 C136.3065,45.3729167 132.132,46.7020833 127.2315,46.7020833 C117.854,46.7020833 111.1385,41.7479167 111.1385,30.63125 C111.1385,20.48125 117.37,14.2583333 125.9005,14.2583333 C135.4595,14.2583333 139.755,21.3875 139.755,30.3895833 C139.755,31.35625 139.6945,32.3833333 139.513,32.8666667 L139.513,32.8666667 Z M125.598,20.48125 C122.936,20.48125 121,22.8375 120.6975,27.6104167 L130.559,27.6104167 C130.196,22.8979167 128.5625,20.48125 125.598,20.48125 L125.598,20.48125 Z" fill="url(#linearGradient-5)"></path>
                                <path d="M162.3215,46.0375 L161.656,42.1708333 C159.115,44.8291667 156.09,46.7020833 151.7945,46.7020833 C146.8335,46.7020833 143.3245,43.7416667 143.3245,38.0625 C143.3245,30.7520833 148.951,27.3083333 161.2325,26.2208333 L161.2325,25.6770833 C161.2325,22.9583333 159.72,21.75 156.5135,21.75 C153.0045,21.75 149.7375,22.65625 146.41,24.10625 L145.2605,16.85625 C148.83,15.40625 152.8835,14.4395833 157.9655,14.4395833 C166.617,14.4395833 170.852,17.2791667 170.852,25.2541667 L170.852,46.0979167 L162.3215,46.0979167 L162.3215,46.0375 Z M161.2325,30.8729167 C154.638,31.9 152.8835,34.075 152.8835,36.79375 C152.8835,38.7875 154.0935,39.875 155.9085,39.875 C157.784,39.875 159.5385,39.0291667 161.293,37.51875 L161.293,30.8729167 L161.2325,30.8729167 Z" fill="url(#linearGradient-6)"></path>
                                <polygon fill="url(#linearGradient-7)" points="194.1445 46.1583333 184.525 46.1583333 173.877 15.6479167 184.2225 14.4395833 190.0305 34.1354167 195.7175 14.8625 205.095 14.8625"></polygon>
                                <path d="M221.309,46.7020833 C212.6575,46.7020833 206.3655,40.5395833 206.3655,30.5708333 C206.3655,20.6020833 212.7785,14.2583333 221.3695,14.2583333 C230.0815,14.2583333 236.434,20.48125 236.434,30.5104167 C236.434,40.5395833 230.021,46.7020833 221.309,46.7020833 L221.309,46.7020833 Z M221.3695,22.1125 C217.679,22.1125 215.6825,25.375 215.6825,30.45 C215.6825,35.4645833 217.7395,38.9083333 221.3695,38.9083333 C225.06,38.9083333 227.117,35.525 227.117,30.5104167 C227.117,25.4958333 225.06,22.1125 221.3695,22.1125 L221.3695,22.1125 Z" fill="url(#linearGradient-8)"></path>
                                <path d="M254.6445,46.5208333 C247.929,46.5208333 243.2705,44.1041667 243.2705,36.1291667 L243.2705,22.7166667 L239.096,22.7166667 L239.096,14.8625 L243.2705,14.8625 L243.2705,5.55833333 L252.8295,4.10833333 L252.8295,14.8625 L258.7585,14.8625 L259.9685,22.7166667 L252.8295,22.7166667 L252.8295,34.61875 C252.8295,37.15625 254.0395,38.3041667 256.641,38.3041667 C257.488,38.3041667 258.214,38.1833333 258.94,38.0020833 L260.15,45.9166667 C258.698,46.2791667 257.1855,46.5208333 254.6445,46.5208333 L254.6445,46.5208333 Z" fill="url(#linearGradient-9)"></path>
                                <path d="M291.368,32.8666667 L272.613,32.8666667 C273.097,37.7604167 276.0615,39.69375 280.2965,39.69375 C283.745,39.69375 287.133,38.425 290.5815,36.43125 L291.5495,43.1979167 C288.1615,45.3729167 283.987,46.7020833 279.0865,46.7020833 C269.709,46.7020833 262.9935,41.7479167 262.9935,30.63125 C262.9935,20.48125 269.225,14.2583333 277.7555,14.2583333 C287.3145,14.2583333 291.61,21.3875 291.61,30.3895833 C291.5495,31.35625 291.489,32.3833333 291.368,32.8666667 L291.368,32.8666667 Z M277.453,20.48125 C274.791,20.48125 272.855,22.8375 272.5525,27.6104167 L282.414,27.6104167 C282.051,22.8979167 280.4175,20.48125 277.453,20.48125 L277.453,20.48125 Z" fill="url(#linearGradient-10)"></path>
                            </g>
                            <polygon id="Shape" fill="url(#linearGradient-11)" points="22.022 6.94791667 22.022 6.94791667 28.8585 13.775 35.7555 6.94791667 28.8585 0.120833333"></polygon>
                            <polygon id="Shape" fill="url(#linearGradient-12)" points="44.044 28.81875 44.044 28.81875 50.8805 35.6458333 57.717 28.81875 50.8805 21.9916667"></polygon>
                            <polygon id="Shape" fill="url(#linearGradient-13)" points="22.2035 50.75 22.2035 50.75 29.04 57.5770833 35.8765 50.75 29.04 43.9229167"></polygon>
                            <polygon id="Shape" fill="url(#linearGradient-14)" points="0.0605 28.81875 0.0605 28.81875 6.897 35.6458333 13.7335 28.81875 6.897 21.9916667"></polygon>
                            <path d="M1.452,14.5 L14.4595,27.4291667 L27.467,14.5 L14.4595,1.51041667 L1.452,14.5 L1.452,14.5 Z M16.6375,13.05 L13.0075,16.6145833 L12.2815,15.8895833 L15.9115,12.325 L16.6375,13.05 L16.6375,13.05 Z" id="Shape" fill="url(#linearGradient-15)"></path>
                            <path d="M1.452,43.1979167 L14.4595,56.1270833 L27.467,43.1979167 L14.4595,30.26875 L1.452,43.1979167 L1.452,43.1979167 Z M15.9115,45.3729167 L12.2815,41.8083333 L13.0075,41.0833333 L16.6375,44.6479167 L15.9115,45.3729167 L15.9115,45.3729167 Z" id="Shape" fill="url(#linearGradient-16)"></path>
                            <path d="M43.318,27.4291667 L56.3255,14.5 L43.318,1.51041667 L30.3105,14.5 L43.318,27.4291667 L43.318,27.4291667 Z M45.496,15.8895833 L44.77,16.6145833 L41.14,13.05 L41.866,12.325 L45.496,15.8895833 L45.496,15.8895833 Z" id="Shape" fill="url(#linearGradient-17)"></path>
                            <path d="M30.3105,43.1979167 L43.318,56.1270833 L56.3255,43.1979167 L43.318,30.26875 L30.3105,43.1979167 L30.3105,43.1979167 Z M45.496,41.7479167 L41.866,45.3125 L41.14,44.6479167 L44.77,41.0833333 L45.496,41.7479167 L45.496,41.7479167 Z" id="Shape" fill="url(#linearGradient-18)"></path>
                        </g>
                    </g>
                </g>
            </g>
        </g>
    </g>
</svg>