<?xml version="1.0" standalone="no"?>
<!DOCTYPE svg PUBLIC "-//W3C//DTD SVG 20010904//EN"
 "http://www.w3.org/TR/2001/REC-SVG-20010904/DTD/svg10.dtd">
<svg version="1.0" xmlns="http://www.w3.org/2000/svg"
 width="700.000000pt" height="700.000000pt" viewBox="0 0 700.000000 700.000000"
 preserveAspectRatio="xMidYMid meet">
<metadata>
Created by potrace 1.11, written by Peter Selinger 2001-2013
</metadata>
<g transform="translate(0.000000,700.000000) scale(0.100000,-0.100000)"
fill="#000000" stroke="none">
<path d="M840 3410 l0 -1470 278 0 c482 1 778 21 942 66 228 63 423 174 605
346 294 279 434 618 435 1054 0 219 -24 377 -85 544 -72 199 -159 335 -320
496 -173 174 -324 269 -541 340 -214 70 -473 94 -1021 94 l-293 0 0 -1470z
m955 1026 c259 -48 440 -138 589 -296 160 -170 241 -356 267 -616 20 -195 -15
-417 -90 -579 -86 -184 -256 -362 -441 -459 -159 -84 -317 -115 -622 -123
l-218 -6 0 1053 0 1053 213 -6 c130 -3 247 -11 302 -21z"/>
<path d="M3800 3410 l0 -1470 220 0 220 0 0 685 0 685 630 0 630 0 2 -682 3
-683 220 0 220 0 0 1465 0 1465 -220 0 -220 0 -3 -572 -2 -573 -630 0 -630 0
0 575 0 575 -220 0 -220 0 0 -1470z"/>
</g>
</svg>
